<?xml version="1.0" encoding="UTF-8" standalone="no"?>
<svg
   xmlns:dc="http://purl.org/dc/elements/1.1/"
   xmlns:cc="http://creativecommons.org/ns#"
   xmlns:rdf="http://www.w3.org/1999/02/22-rdf-syntax-ns#"
   xmlns:svg="http://www.w3.org/2000/svg"
   xmlns="http://www.w3.org/2000/svg"
   xmlns:sodipodi="http://sodipodi.sourceforge.net/DTD/sodipodi-0.dtd"
   xmlns:inkscape="http://www.inkscape.org/namespaces/inkscape"
   width="69.315697mm"
   height="60.47604mm"
   viewBox="0 0 69.315694 60.476039"
   version="1.1"
   id="svg208"
   inkscape:version="1.0.1 (3bc2e813f5, 2020-09-07)"
   sodipodi:docname="overcast_night.svg">
  <defs
     id="defs202" />
  <sodipodi:namedview
     id="base"
     pagecolor="#ffffff"
     bordercolor="#666666"
     borderopacity="1.0"
     inkscape:pageopacity="0.0"
     inkscape:pageshadow="2"
     inkscape:zoom="0.35"
     inkscape:cx="130.9903"
     inkscape:cy="114.28542"
     inkscape:document-units="mm"
     inkscape:current-layer="layer1"
     inkscape:document-rotation="0"
     showgrid="false"
     fit-margin-top="5"
     lock-margins="true"
     fit-margin-left="5"
     fit-margin-right="5"
     fit-margin-bottom="5"
     inkscape:window-width="1147"
     inkscape:window-height="1008"
     inkscape:window-x="757"
     inkscape:window-y="0"
     inkscape:window-maximized="0" />
  <metadata
     id="metadata205">
    <rdf:RDF>
      <cc:Work
         rdf:about="">
        <dc:format>image/svg+xml</dc:format>
        <dc:type
           rdf:resource="http://purl.org/dc/dcmitype/StillImage" />
        <dc:title />
      </cc:Work>
    </rdf:RDF>
  </metadata>
  <g
     inkscape:label="Ebene 1"
     inkscape:groupmode="layer"
     id="layer1"
     transform="translate(-254.15298,-133.80365)">
    <path
       d="m 305.44097,160.73267 c 1.65735,0 3.21875,-0.42192 4.58117,-1.16664 -2.2546,2.42958 -5.47687,3.94653 -9.04945,3.94653 -6.82272,0 -12.35463,-5.53226 -12.35463,-12.35463 0,-6.82272 5.53191,-12.35428 12.35463,-12.35428 3.57258,0 6.79485,1.51694 9.04945,3.94617 -1.36242,-0.74436 -2.92382,-1.16663 -4.58117,-1.16663 -5.28884,0 -9.57474,4.28625 -9.57474,9.57474 0,5.28849 4.2859,9.57474 9.57474,9.57474"
       style="display:inline;fill:#fbdb60;fill-opacity:1;fill-rule:nonzero;stroke:none;stroke-width:0.0352777"
       id="path154" />
    <path
       d="m 311.61917,175.58179 c -0.0296,0 -0.0565,0.008 -0.0861,0.008 0.54398,-1.25836 0.84878,-2.64442 0.84878,-4.10246 0,-5.71746 -4.63514,-10.35226 -10.35261,-10.35226 -2.02071,0 -3.89996,0.58808 -5.49346,1.58856 -2.15547,-5.2384 -7.30461,-8.92986 -13.32089,-8.92986 -7.95514,0 -14.40391,6.44877 -14.40391,14.40426 0,0.60114 0.0483,1.19028 0.11994,1.77201 -0.0406,-2.7e-4 -0.0797,-0.006 -0.11994,-0.006 -5.334,10e-6 -9.658,4.32401 -9.658,9.65801 0,5.33364 4.324,9.65764 9.658,9.65764 h 42.80817 c 3.78283,0 6.84953,-3.0667 6.84953,-6.84918 0,-3.78283 -3.0667,-6.84918 -6.84953,-6.84918"
       style="display:inline;fill:#e6e6e6;fill-opacity:1;fill-rule:nonzero;stroke:none;stroke-width:0.0352777"
       id="path156" />
  </g>
</svg>
