<?xml version="1.0" encoding="UTF-8" standalone="no"?>
<svg
   xmlns:dc="http://purl.org/dc/elements/1.1/"
   xmlns:cc="http://creativecommons.org/ns#"
   xmlns:rdf="http://www.w3.org/1999/02/22-rdf-syntax-ns#"
   xmlns:svg="http://www.w3.org/2000/svg"
   xmlns="http://www.w3.org/2000/svg"
   xmlns:sodipodi="http://sodipodi.sourceforge.net/DTD/sodipodi-0.dtd"
   xmlns:inkscape="http://www.inkscape.org/namespaces/inkscape"
   width="81.612518mm"
   height="62.442181mm"
   viewBox="0 0 81.612517 62.442181"
   version="1.1"
   id="svg208"
   inkscape:version="1.0.1 (3bc2e813f5, 2020-09-07)"
   sodipodi:docname="overcast.svg">
  <defs
     id="defs202" />
  <sodipodi:namedview
     id="base"
     pagecolor="#ffffff"
     bordercolor="#666666"
     borderopacity="1.0"
     inkscape:pageopacity="0.0"
     inkscape:pageshadow="2"
     inkscape:zoom="0.35"
     inkscape:cx="-59.780494"
     inkscape:cy="228.64058"
     inkscape:document-units="mm"
     inkscape:current-layer="layer1"
     inkscape:document-rotation="0"
     showgrid="false"
     fit-margin-top="5"
     lock-margins="true"
     fit-margin-left="5"
     fit-margin-right="5"
     fit-margin-bottom="5"
     inkscape:window-width="1147"
     inkscape:window-height="1008"
     inkscape:window-x="757"
     inkscape:window-y="0"
     inkscape:window-maximized="0" />
  <metadata
     id="metadata205">
    <rdf:RDF>
      <cc:Work
         rdf:about="">
        <dc:format>image/svg+xml</dc:format>
        <dc:type
           rdf:resource="http://purl.org/dc/dcmitype/StillImage" />
        <dc:title />
      </cc:Work>
    </rdf:RDF>
  </metadata>
  <g
     inkscape:label="Ebene 1"
     inkscape:groupmode="layer"
     id="layer1"
     transform="translate(-102.89826,-103.54718)">
    <path
       d="m 139.77773,131.2449 c 0,5.06942 -4.11022,9.17928 -9.18034,9.17928 -5.07012,0 -9.18033,-4.10986 -9.18033,-9.17928 0,-5.06941 4.11021,-9.17928 9.18033,-9.17928 5.07012,0 9.18034,4.10987 9.18034,9.17928"
       style="display:inline;fill:#fbdb60;fill-opacity:1;fill-rule:nonzero;stroke:none;stroke-width:0.0352777"
       id="path48" />
    <path
       d="m 130.59739,118.57665 v 0 c -0.60783,0 -1.10066,-0.49389 -1.10066,-1.10066 v -7.82814 c 0,-0.61031 0.49283,-1.10067 1.10066,-1.10067 v 0 c 0.60784,0 1.10032,0.49036 1.10032,1.10067 v 7.82814 c 0,0.60677 -0.49248,1.10066 -1.10032,1.10066"
       style="display:inline;fill:#fbdb60;fill-opacity:1;fill-rule:nonzero;stroke:none;stroke-width:0.0352777"
       id="path50" />
    <path
       d="m 130.59739,153.94333 v 0 c -0.60783,0 -1.10066,-0.49248 -1.10066,-1.10031 v -7.8292 c 0,-0.61031 0.49283,-1.10067 1.10066,-1.10067 v 0 c 0.60784,0 1.10032,0.49036 1.10032,1.10067 v 7.8292 c 0,0.60783 -0.49248,1.10031 -1.10032,1.10031"
       style="display:inline;fill:#fbdb60;fill-opacity:1;fill-rule:nonzero;stroke:none;stroke-width:0.0352777"
       id="path52" />
    <path
       d="m 139.55513,122.28787 v 0 c -0.42969,-0.43038 -0.42969,-1.12888 0,-1.55927 l 5.53649,-5.53509 c 0.42968,-0.43039 1.12642,-0.43039 1.5561,0 v 0 c 0.43004,0.43039 0.43004,1.12536 0,1.55575 l -5.53614,5.53861 c -0.42968,0.42687 -1.12677,0.42687 -1.55645,0"
       style="display:inline;fill:#fbdb60;fill-opacity:1;fill-rule:nonzero;stroke:none;stroke-width:0.0352777"
       id="path54" />
    <path
       d="m 114.54671,147.29629 v 0 c -0.42968,-0.43039 -0.42968,-1.12889 0,-1.55575 l 5.53649,-5.53861 c 0.42969,-0.43039 1.12642,-0.43039 1.55646,0 v 0 c 0.42968,0.43039 0.42968,1.12889 0,1.55575 l -5.53649,5.53861 c -0.42969,0.42686 -1.12678,0.42686 -1.55646,0"
       style="display:inline;fill:#fbdb60;fill-opacity:1;fill-rule:nonzero;stroke:none;stroke-width:0.0352777"
       id="path56" />
    <path
       d="m 143.26564,131.2449 v 0 c 0,-0.60678 0.49248,-1.10066 1.10032,-1.10066 h 7.8299 c 0.60748,0 1.10031,0.49388 1.10031,1.10066 v 0 c 0,0.60678 -0.49283,1.10067 -1.10031,1.10067 h -7.8299 c -0.60784,0 -1.10032,-0.49389 -1.10032,-1.10067"
       style="display:inline;fill:#fbdb60;fill-opacity:1;fill-rule:nonzero;stroke:none;stroke-width:0.0352777"
       id="path58" />
    <path
       d="m 107.89826,131.2449 v 0 c 0,-0.60678 0.49283,-1.10066 1.10067,-1.10066 h 7.82955 c 0.60783,0 1.10066,0.49388 1.10066,1.10066 v 0 c 0,0.60678 -0.49283,1.10067 -1.10066,1.10067 h -7.82955 c -0.60784,0 -1.10067,-0.49389 -1.10067,-1.10067"
       style="display:inline;fill:#fbdb60;fill-opacity:1;fill-rule:nonzero;stroke:none;stroke-width:0.0352777"
       id="path60" />
    <path
       d="m 139.55513,140.20193 v 0 c 0.42968,-0.43039 1.12677,-0.43039 1.55645,0 l 5.53614,5.53861 c 0.43004,0.42686 0.43004,1.12536 0,1.55575 v 0 c -0.42968,0.42686 -1.12642,0.42686 -1.5561,0 l -5.53649,-5.53861 c -0.42969,-0.42686 -0.42969,-1.12536 0,-1.55575"
       style="display:inline;fill:#fbdb60;fill-opacity:1;fill-rule:nonzero;stroke:none;stroke-width:0.0352777"
       id="path62" />
    <path
       d="m 114.54671,115.19351 v 0 c 0.42968,-0.43039 1.12677,-0.43039 1.55646,0 l 5.53649,5.53509 c 0.42968,0.43039 0.42968,1.12889 0,1.55927 v 0 c -0.43004,0.42687 -1.12677,0.42687 -1.55646,0 l -5.53649,-5.53861 c -0.42968,-0.43039 -0.42968,-1.12536 0,-1.55575"
       style="display:inline;fill:#fbdb60;fill-opacity:1;fill-rule:nonzero;stroke:none;stroke-width:0.0352777"
       id="path64" />
    <path
       d="m 172.66156,147.29276 c -0.0296,0 -0.0568,0.007 -0.0864,0.007 0.54399,-1.25942 0.84879,-2.64584 0.84879,-4.10281 0,-5.71853 -4.63515,-10.3505 -10.35226,-10.3505 -2.02072,0 -3.90032,0.58561 -5.49346,1.5875 -2.15547,-5.23875 -7.30462,-8.93233 -13.32124,-8.93233 -7.95514,0 -14.40392,6.45231 -14.40392,14.40744 0,0.59973 0.0487,1.18886 0.11995,1.77095 -0.0402,0 -0.0794,-0.007 -0.11995,-0.007 -5.334,0 -9.658,4.32506 -9.658,9.65871 0,5.33364 4.324,9.65764 9.658,9.65764 h 42.80853 c 3.78283,0 6.84918,-3.06634 6.84918,-6.84918 0,-3.78248 -3.06635,-6.84742 -6.84918,-6.84742"
       style="display:inline;fill:#e6e6e6;fill-opacity:1;fill-rule:nonzero;stroke:none;stroke-width:0.0352777"
       id="path66" />
  </g>
</svg>
