<?xml version="1.0" encoding="UTF-8" standalone="no"?>
<svg
   xmlns:dc="http://purl.org/dc/elements/1.1/"
   xmlns:cc="http://creativecommons.org/ns#"
   xmlns:rdf="http://www.w3.org/1999/02/22-rdf-syntax-ns#"
   xmlns:svg="http://www.w3.org/2000/svg"
   xmlns="http://www.w3.org/2000/svg"
   xmlns:sodipodi="http://sodipodi.sourceforge.net/DTD/sodipodi-0.dtd"
   xmlns:inkscape="http://www.inkscape.org/namespaces/inkscape"
   width="69.315521mm"
   height="65.118729mm"
   viewBox="0 0 69.31552 65.118729"
   version="1.1"
   id="svg208"
   inkscape:version="1.0.1 (3bc2e813f5, 2020-09-07)"
   sodipodi:docname="rain.svg">
  <defs
     id="defs202" />
  <sodipodi:namedview
     id="base"
     pagecolor="#ffffff"
     bordercolor="#666666"
     borderopacity="1.0"
     inkscape:pageopacity="0.0"
     inkscape:pageshadow="2"
     inkscape:zoom="0.35"
     inkscape:cx="-52.086283"
     inkscape:cy="209.08923"
     inkscape:document-units="mm"
     inkscape:current-layer="layer1"
     inkscape:document-rotation="0"
     showgrid="false"
     fit-margin-top="5"
     lock-margins="true"
     fit-margin-left="5"
     fit-margin-right="5"
     fit-margin-bottom="5"
     inkscape:window-width="1147"
     inkscape:window-height="1008"
     inkscape:window-x="757"
     inkscape:window-y="0"
     inkscape:window-maximized="0" />
  <metadata
     id="metadata205">
    <rdf:RDF>
      <cc:Work
         rdf:about="">
        <dc:format>image/svg+xml</dc:format>
        <dc:type
           rdf:resource="http://purl.org/dc/dcmitype/StillImage" />
        <dc:title />
      </cc:Work>
    </rdf:RDF>
  </metadata>
  <g
     inkscape:label="Ebene 1"
     inkscape:groupmode="layer"
     id="layer1"
     transform="translate(-100.8625,-108.72014)">
    <path
       d="m 158.32887,135.50816 c -0.0296,0 -0.0568,0.008 -0.0861,0.008 0.54398,-1.25836 0.84878,-2.64442 0.84878,-4.10245 0,-5.71747 -4.63515,-10.35262 -10.35262,-10.35262 -2.02071,0 -3.89996,0.58808 -5.49345,1.58927 -2.15547,-5.23875 -7.30462,-8.93022 -13.32089,-8.93022 -7.95549,0 -14.40427,6.44878 -14.40427,14.40427 0,0.60113 0.0487,1.19027 0.1203,1.772 -0.0406,-3.4e-4 -0.0797,-0.006 -0.1203,-0.006 -5.33365,0 -9.65782,4.324 -9.65782,9.658 0,5.33365 4.32417,9.65765 9.65782,9.65765 h 42.80853 c 3.78283,0 6.84917,-3.06635 6.84917,-6.84918 0,-3.78284 -3.06634,-6.84918 -6.84917,-6.84918"
       style="display:inline;fill:#e6e6e6;fill-opacity:1;fill-rule:nonzero;stroke:none;stroke-width:0.0352777"
       id="path68" />
    <path
       d="m 124.8432,166.08164 c -1.16346,2.42041 -4.06894,3.43958 -6.48935,2.27612 -2.42041,-1.16346 -3.43958,-4.06894 -2.27612,-6.48934 1.16381,-2.42041 8.6875,-6.84918 8.6875,-6.84918 0,0 1.24143,8.64199 0.078,11.0624"
       style="display:inline;fill:#c2d9f2;fill-opacity:1;fill-rule:nonzero;stroke:none;stroke-width:0.0352777"
       id="path70" />
    <path
       d="m 136.93466,166.08164 c -1.16311,2.42041 -4.06859,3.43958 -6.489,2.27612 -2.42076,-1.16346 -3.43958,-4.06894 -2.27612,-6.48934 1.16381,-2.42041 8.6875,-6.84918 8.6875,-6.84918 0,0 1.24143,8.64199 0.0776,11.0624"
       style="display:inline;fill:#c2d9f2;fill-opacity:1;fill-rule:nonzero;stroke:none;stroke-width:0.0352777"
       id="path72" />
    <path
       d="m 149.19721,166.08164 c -1.16346,2.42041 -4.06894,3.43958 -6.48934,2.27612 -2.42041,-1.16346 -3.43924,-4.06894 -2.27613,-6.48934 1.16382,-2.42041 8.68751,-6.84918 8.68751,-6.84918 0,0 1.24142,8.64199 0.078,11.0624"
       style="display:inline;fill:#c2d9f2;fill-opacity:1;fill-rule:nonzero;stroke:none;stroke-width:0.0352777"
       id="path74" />
  </g>
</svg>
