<?xml version="1.0" encoding="UTF-8" standalone="no"?>
<svg
   xmlns:dc="http://purl.org/dc/elements/1.1/"
   xmlns:cc="http://creativecommons.org/ns#"
   xmlns:rdf="http://www.w3.org/1999/02/22-rdf-syntax-ns#"
   xmlns:svg="http://www.w3.org/2000/svg"
   xmlns="http://www.w3.org/2000/svg"
   xmlns:sodipodi="http://sodipodi.sourceforge.net/DTD/sodipodi-0.dtd"
   xmlns:inkscape="http://www.inkscape.org/namespaces/inkscape"
   width="69.315697mm"
   height="72.377922mm"
   viewBox="0 0 69.315696 72.377922"
   version="1.1"
   id="svg208"
   inkscape:version="1.0.1 (3bc2e813f5, 2020-09-07)"
   sodipodi:docname="thunder.svg">
  <defs
     id="defs202" />
  <sodipodi:namedview
     id="base"
     pagecolor="#ffffff"
     bordercolor="#666666"
     borderopacity="1.0"
     inkscape:pageopacity="0.0"
     inkscape:pageshadow="2"
     inkscape:zoom="0.35"
     inkscape:cx="256.26565"
     inkscape:cy="250.9074"
     inkscape:document-units="mm"
     inkscape:current-layer="layer1"
     inkscape:document-rotation="0"
     showgrid="false"
     fit-margin-top="5"
     lock-margins="true"
     fit-margin-left="5"
     fit-margin-right="5"
     fit-margin-bottom="5"
     inkscape:window-width="1147"
     inkscape:window-height="1008"
     inkscape:window-x="764"
     inkscape:window-y="0"
     inkscape:window-maximized="0" />
  <metadata
     id="metadata205">
    <rdf:RDF>
      <cc:Work
         rdf:about="">
        <dc:format>image/svg+xml</dc:format>
        <dc:type
           rdf:resource="http://purl.org/dc/dcmitype/StillImage" />
        <dc:title></dc:title>
      </cc:Work>
    </rdf:RDF>
  </metadata>
  <g
     inkscape:label="Ebene 1"
     inkscape:groupmode="layer"
     id="layer1"
     transform="translate(-19.277719,-97.65575)">
    <path
       d="m 76.743906,124.44377 c -0.0296,0 -0.0564,0.008 -0.0861,0.008 0.54399,-1.25836 0.84879,-2.64442 0.84879,-4.10245 0,-5.71747 -4.63515,-10.35262 -10.352619,-10.35262 -2.020713,0 -3.899958,0.58808 -5.493456,1.58927 -2.155473,-5.23875 -7.304617,-8.93022 -13.320889,-8.93022 -7.955139,0 -14.403916,6.44878 -14.403916,14.40427 0,0.60113 0.04833,1.19027 0.119944,1.772 -0.04057,-3.4e-4 -0.07973,-0.006 -0.119944,-0.006 -5.334,0 -9.657997,4.324 -9.657997,9.658 0,5.33365 4.323997,9.65765 9.657997,9.65765 h 42.80817 c 3.78284,0 6.84953,-3.06635 6.84953,-6.84918 0,-3.78284 -3.06669,-6.84918 -6.84953,-6.84918"
       style="display:inline;fill:#c2d9f2;fill-opacity:1;fill-rule:nonzero;stroke:none;stroke-width:0.0352777"
       id="path88" />
    <path
       d="m 50.70538,142.28091 -3.708047,11.29207 h 5.112456 l -3.314701,11.46069 12.078405,-16.1798 h -6.2357 l 2.359379,-6.57296 H 50.70538"
       style="display:inline;fill:#fbdb60;fill-opacity:1;fill-rule:nonzero;stroke:none;stroke-width:0.0352777"
       id="path90" />
  </g>
</svg>
