<?xml version="1.0" encoding="UTF-8" standalone="no"?>
<svg
   xmlns:dc="http://purl.org/dc/elements/1.1/"
   xmlns:cc="http://creativecommons.org/ns#"
   xmlns:rdf="http://www.w3.org/1999/02/22-rdf-syntax-ns#"
   xmlns:svg="http://www.w3.org/2000/svg"
   xmlns="http://www.w3.org/2000/svg"
   xmlns:sodipodi="http://sodipodi.sourceforge.net/DTD/sodipodi-0.dtd"
   xmlns:inkscape="http://www.inkscape.org/namespaces/inkscape"
   width="69.317108mm"
   height="76.660347mm"
   viewBox="0 0 69.317107 76.660347"
   version="1.1"
   id="svg208"
   inkscape:version="1.0.1 (3bc2e813f5, 2020-09-07)"
   sodipodi:docname="thunderstorm.svg">
  <defs
     id="defs202" />
  <sodipodi:namedview
     id="base"
     pagecolor="#ffffff"
     bordercolor="#666666"
     borderopacity="1.0"
     inkscape:pageopacity="0.0"
     inkscape:pageshadow="2"
     inkscape:zoom="0.35"
     inkscape:cx="-332.5219"
     inkscape:cy="25.387754"
     inkscape:document-units="mm"
     inkscape:current-layer="layer1"
     inkscape:document-rotation="0"
     showgrid="false"
     fit-margin-top="5"
     lock-margins="true"
     fit-margin-left="5"
     fit-margin-right="5"
     fit-margin-bottom="5"
     inkscape:window-width="1147"
     inkscape:window-height="1008"
     inkscape:window-x="764"
     inkscape:window-y="0"
     inkscape:window-maximized="0" />
  <metadata
     id="metadata205">
    <rdf:RDF>
      <cc:Work
         rdf:about="">
        <dc:format>image/svg+xml</dc:format>
        <dc:type
           rdf:resource="http://purl.org/dc/dcmitype/StillImage" />
        <dc:title></dc:title>
      </cc:Work>
    </rdf:RDF>
  </metadata>
  <g
     inkscape:label="Ebene 1"
     inkscape:groupmode="layer"
     id="layer1"
     transform="translate(-175.06109,-157.32449)">
    <path
       d="m 232.52729,184.11186 c -0.0282,0 -0.0564,0.008 -0.0847,0.009 0.54328,-1.25835 0.84667,-2.64442 0.84667,-4.10245 0,-5.71782 -4.6355,-10.35262 -10.3505,-10.35262 -2.02142,0 -3.90172,0.58773 -5.49628,1.58892 -2.15547,-5.23875 -7.3025,-8.93022 -13.32089,-8.93022 -7.95337,0 -14.40286,6.44913 -14.40286,14.40427 0,0.60149 0.0487,1.19027 0.1203,1.77235 -0.0402,-7.1e-4 -0.0794,-0.006 -0.1203,-0.006 -5.33364,0 -9.65764,4.32399 -9.65764,9.65764 0,5.33365 4.324,9.65765 9.65764,9.65765 h 42.80853 c 3.78178,0 6.85094,-3.06635 6.85094,-6.84918 0,-3.78284 -3.06916,-6.84918 -6.85094,-6.84918"
       style="display:inline;fill:#c2d9f2;fill-opacity:1;fill-rule:nonzero;stroke:none;stroke-width:0.0352777"
       id="path92" />
    <path
       d="m 192.90611,214.68569 c -1.16381,2.42041 -4.06929,3.43923 -6.4897,2.27577 -2.42005,-1.16346 -3.43923,-4.06858 -2.27577,-6.48934 1.16346,-2.42041 8.68751,-6.84883 8.68751,-6.84883 0,0 1.24107,8.64164 0.078,11.0624"
       style="display:inline;fill:#c2d9f2;fill-opacity:1;fill-rule:nonzero;stroke:none;stroke-width:0.0352777"
       id="path94" />
    <path
       d="m 235.28248,214.68569 c -1.16416,2.42041 -4.07105,3.43923 -6.49111,2.27577 -2.42005,-1.16346 -3.43958,-4.06858 -2.27541,-6.48934 1.16416,-2.42041 8.68891,-6.84883 8.68891,-6.84883 0,0 1.23825,8.64164 0.0776,11.0624"
       style="display:inline;fill:#c2d9f2;fill-opacity:1;fill-rule:nonzero;stroke:none;stroke-width:0.0352777"
       id="path96" />
    <path
       d="m 205.88198,201.94936 -4.4069,13.41755 h 6.07554 l -3.93982,13.61793 14.35382,-19.22534 h -7.41186 l 2.80458,-7.81014 h -7.47536"
       style="display:inline;fill:#fbdb60;fill-opacity:1;fill-rule:nonzero;stroke:none;stroke-width:0.0352777"
       id="path98" />
  </g>
</svg>
