<?xml version="1.0" encoding="UTF-8" standalone="no"?>
<svg
   xmlns:dc="http://purl.org/dc/elements/1.1/"
   xmlns:cc="http://creativecommons.org/ns#"
   xmlns:rdf="http://www.w3.org/1999/02/22-rdf-syntax-ns#"
   xmlns:svg="http://www.w3.org/2000/svg"
   xmlns="http://www.w3.org/2000/svg"
   xmlns:sodipodi="http://sodipodi.sourceforge.net/DTD/sodipodi-0.dtd"
   xmlns:inkscape="http://www.inkscape.org/namespaces/inkscape"
   width="69.315521mm"
   height="45.48774mm"
   viewBox="0 0 69.31552 45.48774"
   version="1.1"
   id="svg208"
   inkscape:version="1.0.1 (3bc2e813f5, 2020-09-07)"
   sodipodi:docname="cloud.svg">
  <defs
     id="defs202" />
  <sodipodi:namedview
     id="base"
     pagecolor="#ffffff"
     bordercolor="#666666"
     borderopacity="1.0"
     inkscape:pageopacity="0.0"
     inkscape:pageshadow="2"
     inkscape:zoom="0.35"
     inkscape:cx="-60.219108"
     inkscape:cy="197.4588"
     inkscape:document-units="mm"
     inkscape:current-layer="layer1"
     inkscape:document-rotation="0"
     showgrid="false"
     fit-margin-top="5"
     lock-margins="true"
     fit-margin-left="5"
     fit-margin-right="5"
     fit-margin-bottom="5"
     inkscape:window-width="1147"
     inkscape:window-height="1008"
     inkscape:window-x="757"
     inkscape:window-y="0"
     inkscape:window-maximized="0" />
  <metadata
     id="metadata205">
    <rdf:RDF>
      <cc:Work
         rdf:about="">
        <dc:format>image/svg+xml</dc:format>
        <dc:type
           rdf:resource="http://purl.org/dc/dcmitype/StillImage" />
        <dc:title />
      </cc:Work>
    </rdf:RDF>
  </metadata>
  <g
     inkscape:label="Ebene 1"
     inkscape:groupmode="layer"
     id="layer1"
     transform="translate(-103.01431,-111.79736)">
    <path
       d="m 160.48068,138.5885 c -0.0296,0 -0.0568,0.007 -0.0861,0.007 0.54398,-1.25942 0.84878,-2.64583 0.84878,-4.10281 0,-5.71852 -4.63515,-10.3505 -10.35262,-10.3505 -2.02071,0 -3.89996,0.58562 -5.49345,1.5875 -2.15547,-5.23875 -7.30462,-8.93233 -13.32089,-8.93233 -7.95549,0 -14.40427,6.45231 -14.40427,14.40744 0,0.59973 0.0487,1.18887 0.1203,1.77095 -0.0406,0 -0.0797,-0.007 -0.1203,-0.007 -5.33365,0 -9.65782,4.32506 -9.65782,9.65871 0,5.33364 4.32417,9.65764 9.65782,9.65764 h 42.80853 c 3.78283,0 6.84917,-3.06634 6.84917,-6.84918 0,-3.78248 -3.06634,-6.84742 -6.84917,-6.84742"
       style="display:inline;fill:#e6e6e6;fill-opacity:1;fill-rule:nonzero;stroke:none;stroke-width:0.0352777"
       id="path24" />
  </g>
</svg>
