<?xml version="1.0" encoding="UTF-8" standalone="no"?>
<svg
   xmlns:dc="http://purl.org/dc/elements/1.1/"
   xmlns:cc="http://creativecommons.org/ns#"
   xmlns:rdf="http://www.w3.org/1999/02/22-rdf-syntax-ns#"
   xmlns:svg="http://www.w3.org/2000/svg"
   xmlns="http://www.w3.org/2000/svg"
   xmlns:sodipodi="http://sodipodi.sourceforge.net/DTD/sodipodi-0.dtd"
   xmlns:inkscape="http://www.inkscape.org/namespaces/inkscape"
   width="73.161339mm"
   height="40.02174mm"
   viewBox="0 0 73.161336 40.021739"
   version="1.1"
   id="svg208"
   inkscape:version="1.0.1 (3bc2e813f5, 2020-09-07)"
   sodipodi:docname="mist.svg">
  <defs
     id="defs202" />
  <sodipodi:namedview
     id="base"
     pagecolor="#ffffff"
     bordercolor="#666666"
     borderopacity="1.0"
     inkscape:pageopacity="0.0"
     inkscape:pageshadow="2"
     inkscape:zoom="1.4"
     inkscape:cx="97.778579"
     inkscape:cy="138.42329"
     inkscape:document-units="mm"
     inkscape:current-layer="layer1"
     inkscape:document-rotation="0"
     showgrid="true"
     fit-margin-top="5"
     lock-margins="true"
     fit-margin-left="5"
     fit-margin-right="5"
     fit-margin-bottom="5"
     inkscape:window-width="1147"
     inkscape:window-height="1008"
     inkscape:window-x="757"
     inkscape:window-y="0"
     inkscape:window-maximized="0">
    <inkscape:grid
       type="xygrid"
       id="grid115"
       originx="-4.9222299"
       originy="-0.56224996" />
  </sodipodi:namedview>
  <metadata
     id="metadata205">
    <rdf:RDF>
      <cc:Work
         rdf:about="">
        <dc:format>image/svg+xml</dc:format>
        <dc:type
           rdf:resource="http://purl.org/dc/dcmitype/StillImage" />
        <dc:title></dc:title>
      </cc:Work>
    </rdf:RDF>
  </metadata>
  <g
     inkscape:label="Ebene 1"
     inkscape:groupmode="layer"
     id="layer1"
     transform="translate(-313.46231,-355.70811)">
    <path
       d="m 361.45675,363.08336 h -21.89198 c -0.65581,0 -1.18745,-0.53163 -1.18745,-1.1878 v 0 c 0,-0.65546 0.53164,-1.18745 1.18745,-1.18745 h 21.89198 c 0.65617,0 1.1878,0.53199 1.1878,1.18745 v 0 c 0,0.65617 -0.53163,1.1878 -1.1878,1.1878"
       style="display:inline;fill:#e6e6e6;fill-opacity:1;fill-rule:nonzero;stroke:none;stroke-width:0.0352777"
       id="path118" />
    <path
       d="m 379.97758,363.08336 h -12.70247 c -0.65581,0 -1.1878,-0.53163 -1.1878,-1.1878 v 0 c 0,-0.65546 0.53199,-1.18745 1.1878,-1.18745 h 12.70247 c 0.65582,0 1.18745,0.53199 1.18745,1.18745 v 0 c 0,0.65617 -0.53163,1.1878 -1.18745,1.1878"
       style="display:inline;fill:#e6e6e6;fill-opacity:1;fill-rule:nonzero;stroke:none;stroke-width:0.0352777"
       id="path120" />
    <path
       d="m 370.71716,368.37503 h -13.09653 c -0.65616,0 -1.1878,-0.53163 -1.1878,-1.18745 v 0 c 0,-0.65616 0.53164,-1.1878 1.1878,-1.1878 h 13.09653 c 0.65581,0 1.18745,0.53164 1.18745,1.1878 v 0 c 0,0.65582 -0.53164,1.18745 -1.18745,1.18745"
       style="display:inline;fill:#e6e6e6;fill-opacity:1;fill-rule:nonzero;stroke:none;stroke-width:0.0352777"
       id="path122" />
    <path
       d="m 352.88918,373.53123 h -3.4738 c -0.65617,0 -1.1878,-0.53163 -1.1878,-1.18745 v 0 c 0,-0.65616 0.53163,-1.1878 1.1878,-1.1878 h 3.4738 c 0.65582,0 1.18781,0.53164 1.18781,1.1878 v 0 c 0,0.65582 -0.53199,1.18745 -1.18781,1.18745"
       style="display:inline;fill:#e6e6e6;fill-opacity:1;fill-rule:nonzero;stroke:none;stroke-width:0.0352777"
       id="path124" />
    <path
       d="M 380.43584,373.53194 H 358.6758 c -0.65616,0 -1.1878,-0.53199 -1.1878,-1.18816 v 0 c 0,-0.65581 0.53164,-1.18745 1.1878,-1.18745 h 21.76004 c 0.65582,0 1.18781,0.53164 1.18781,1.18745 v 0 c 0,0.65617 -0.53199,1.18816 -1.18781,1.18816"
       style="display:inline;fill:#e6e6e6;fill-opacity:1;fill-rule:nonzero;stroke:none;stroke-width:0.0352777"
       id="path126" />
    <path
       d="m 341.613,373.66669 h -21.76004 c -0.65616,0 -1.1878,-0.53164 -1.1878,-1.18745 v 0 c 0,-0.65617 0.53164,-1.18816 1.1878,-1.18816 H 341.613 c 0.65582,0 1.18781,0.53199 1.18781,1.18816 v 0 c 0,0.65581 -0.53199,1.18745 -1.18781,1.18745"
       style="display:inline;fill:#e6e6e6;fill-opacity:1;fill-rule:nonzero;stroke:none;stroke-width:0.0352777"
       id="path128" />
    <path
       d="m 352.19633,368.37503 h -21.76004 c -0.65616,0 -1.1878,-0.53199 -1.1878,-1.18816 v 0 c 0,-0.65581 0.53164,-1.18745 1.1878,-1.18745 h 21.76004 c 0.65582,0 1.18781,0.53164 1.18781,1.18745 v 0 c 0,0.65617 -0.53199,1.18816 -1.18781,1.18816"
       style="display:inline;fill:#e6e6e6;fill-opacity:1;fill-rule:nonzero;stroke:none;stroke-width:0.0352777"
       id="path126-7" />
    <path
       d="m 332.35258,363.08336 h -12.70247 c -0.65581,0 -1.1878,-0.53163 -1.1878,-1.1878 v 0 c 0,-0.65546 0.53199,-1.18745 1.1878,-1.18745 h 12.70247 c 0.65582,0 1.18745,0.53199 1.18745,1.18745 v 0 c 0,0.65617 -0.53163,1.1878 -1.18745,1.1878"
       style="display:inline;fill:#e6e6e6;fill-opacity:1;fill-rule:nonzero;stroke:none;stroke-width:0.0352777"
       id="path120-1" />
    <path
       d="m 360.87935,380.14652 h -19.95973 c -0.59793,0 -1.08265,-0.53163 -1.08265,-1.1878 v 0 c 0,-0.65546 0.48472,-1.18745 1.08265,-1.18745 h 19.95973 c 0.59825,0 1.08296,0.53199 1.08296,1.18745 v 0 c 0,0.65617 -0.48471,1.1878 -1.08296,1.1878"
       style="display:inline;fill:#e6e6e6;fill-opacity:1;fill-rule:nonzero;stroke:none;stroke-width:0.0336849"
       id="path118-8" />
    <path
       d="m 377.76548,380.14652 h -11.58132 c -0.59792,0 -1.08296,-0.53163 -1.08296,-1.1878 v 0 c 0,-0.65546 0.48504,-1.18745 1.08296,-1.18745 h 11.58132 c 0.59793,0 1.08264,0.53199 1.08264,1.18745 v 0 c 0,0.65617 -0.48471,1.1878 -1.08264,1.1878"
       style="display:inline;fill:#e6e6e6;fill-opacity:1;fill-rule:nonzero;stroke:none;stroke-width:0.0336849"
       id="path120-7" />
    <path
       d="m 369.32241,385.43819 h -11.94059 c -0.59825,0 -1.08297,-0.53163 -1.08297,-1.18745 v 0 c 0,-0.65616 0.48472,-1.1878 1.08297,-1.1878 h 11.94059 c 0.59792,0 1.08264,0.53164 1.08264,1.1878 v 0 c 0,0.65582 -0.48472,1.18745 -1.08264,1.18745"
       style="display:inline;fill:#e6e6e6;fill-opacity:1;fill-rule:nonzero;stroke:none;stroke-width:0.0336849"
       id="path122-5" />
    <path
       d="m 353.06798,390.59439 h -3.1672 c -0.59825,0 -1.08296,-0.53163 -1.08296,-1.18745 v 0 c 0,-0.65616 0.48471,-1.1878 1.08296,-1.1878 h 3.1672 c 0.59793,0 1.08297,0.53164 1.08297,1.1878 v 0 c 0,0.65582 -0.48504,1.18745 -1.08297,1.18745"
       style="display:inline;fill:#e6e6e6;fill-opacity:1;fill-rule:nonzero;stroke:none;stroke-width:0.0336849"
       id="path124-6" />
    <path
       d="m 378.18329,390.5951 h -19.83944 c -0.59824,0 -1.08296,-0.53199 -1.08296,-1.18816 v 0 c 0,-0.65581 0.48472,-1.18745 1.08296,-1.18745 h 19.83944 c 0.59793,0 1.08297,0.53164 1.08297,1.18745 v 0 c 0,0.65617 -0.48504,1.18816 -1.08297,1.18816"
       style="display:inline;fill:#e6e6e6;fill-opacity:1;fill-rule:nonzero;stroke:none;stroke-width:0.0336849"
       id="path126-1" />
    <path
       d="m 342.78706,390.72985 h -19.83943 c -0.59825,0 -1.08296,-0.53164 -1.08296,-1.18745 v 0 c 0,-0.65617 0.48471,-1.18816 1.08296,-1.18816 h 19.83943 c 0.59794,0 1.08297,0.53199 1.08297,1.18816 v 0 c 0,0.65581 -0.48503,1.18745 -1.08297,1.18745"
       style="display:inline;fill:#e6e6e6;fill-opacity:1;fill-rule:nonzero;stroke:none;stroke-width:0.0336849"
       id="path128-7" />
    <path
       d="m 352.43628,385.43819 h -19.83944 c -0.59824,0 -1.08296,-0.53199 -1.08296,-1.18816 v 0 c 0,-0.65581 0.48472,-1.18745 1.08296,-1.18745 h 19.83944 c 0.59793,0 1.08297,0.53164 1.08297,1.18745 v 0 c 0,0.65617 -0.48504,1.18816 -1.08297,1.18816"
       style="display:inline;fill:#e6e6e6;fill-opacity:1;fill-rule:nonzero;stroke:none;stroke-width:0.0336849"
       id="path126-7-8" />
    <path
       d="m 334.344,380.14652 h -11.58132 c -0.59792,0 -1.08296,-0.53163 -1.08296,-1.1878 v 0 c 0,-0.65546 0.48504,-1.18745 1.08296,-1.18745 H 334.344 c 0.59793,0 1.08264,0.53199 1.08264,1.18745 v 0 c 0,0.65617 -0.48471,1.1878 -1.08264,1.1878"
       style="display:inline;fill:#e6e6e6;fill-opacity:1;fill-rule:nonzero;stroke:none;stroke-width:0.0336849"
       id="path120-1-6" />
  </g>
</svg>
