<?xml version="1.0" encoding="UTF-8" standalone="no"?>
<svg
   xmlns:dc="http://purl.org/dc/elements/1.1/"
   xmlns:cc="http://creativecommons.org/ns#"
   xmlns:rdf="http://www.w3.org/1999/02/22-rdf-syntax-ns#"
   xmlns:svg="http://www.w3.org/2000/svg"
   xmlns="http://www.w3.org/2000/svg"
   xmlns:sodipodi="http://sodipodi.sourceforge.net/DTD/sodipodi-0.dtd"
   xmlns:inkscape="http://www.inkscape.org/namespaces/inkscape"
   width="69.315346mm"
   height="74.001053mm"
   viewBox="0 0 69.315345 74.001053"
   version="1.1"
   id="svg208"
   inkscape:version="1.0.1 (3bc2e813f5, 2020-09-07)"
   sodipodi:docname="snowing.svg">
  <defs
     id="defs202" />
  <sodipodi:namedview
     id="base"
     pagecolor="#ffffff"
     bordercolor="#666666"
     borderopacity="1.0"
     inkscape:pageopacity="0.0"
     inkscape:pageshadow="2"
     inkscape:zoom="0.35"
     inkscape:cx="130.98964"
     inkscape:cy="139.84451"
     inkscape:document-units="mm"
     inkscape:current-layer="layer1"
     inkscape:document-rotation="0"
     showgrid="false"
     fit-margin-top="5"
     lock-margins="true"
     fit-margin-left="5"
     fit-margin-right="5"
     fit-margin-bottom="5"
     inkscape:window-width="1147"
     inkscape:window-height="1008"
     inkscape:window-x="757"
     inkscape:window-y="0"
     inkscape:window-maximized="0" />
  <metadata
     id="metadata205">
    <rdf:RDF>
      <cc:Work
         rdf:about="">
        <dc:format>image/svg+xml</dc:format>
        <dc:type
           rdf:resource="http://purl.org/dc/dcmitype/StillImage" />
        <dc:title />
      </cc:Work>
    </rdf:RDF>
  </metadata>
  <g
     inkscape:label="Ebene 1"
     inkscape:groupmode="layer"
     id="layer1"
     transform="translate(-52.423663,-127.04114)">
    <path
       d="m 109.8895,153.82916 c -0.0296,0 -0.0564,0.008 -0.0861,0.008 0.54398,-1.25836 0.84878,-2.64442 0.84878,-4.10245 0,-5.71747 -4.63479,-10.35262 -10.35226,-10.35262 -2.021067,0 -3.900307,0.58808 -5.493807,1.58927 -2.15512,-5.23875 -7.30462,-8.93022 -13.32054,-8.93022 -7.95549,0 -14.40427,6.44878 -14.40427,14.40427 0,0.60113 0.0483,1.19027 0.11995,1.772 -0.0406,-3.4e-4 -0.0794,-0.006 -0.11995,-0.006 -5.334,0 -9.65764,4.324 -9.65764,9.658 0,5.33365 4.32364,9.65765 9.65764,9.65765 h 42.808177 c 3.78318,0 6.84953,-3.06635 6.84953,-6.84918 0,-3.78284 -3.06635,-6.84918 -6.84953,-6.84918"
       style="display:inline;fill:#ececec;fill-opacity:1;fill-rule:nonzero;stroke:none;stroke-width:0.0352777"
       id="path100" />
    <path
       d="m 75.946283,176.94386 c 0,1.16769 -0.94651,2.1142 -2.1142,2.1142 -1.16734,0 -2.1142,-0.94651 -2.1142,-2.1142 0,-1.16769 0.94686,-2.1142 2.1142,-2.1142 1.16769,0 2.1142,0.94651 2.1142,2.1142"
       style="display:inline;fill:#cccccc;fill-opacity:1;fill-rule:nonzero;stroke:none;stroke-width:0.0352777"
       id="path102" />
    <path
       d="m 89.195203,176.94386 c 0,1.16769 -0.9465,2.1142 -2.11385,2.1142 -1.16804,0 -2.11419,-0.94651 -2.11419,-2.1142 0,-1.16769 0.94615,-2.1142 2.11419,-2.1142 1.16735,0 2.11385,0.94651 2.11385,2.1142"
       style="display:inline;fill:#cccccc;fill-opacity:1;fill-rule:nonzero;stroke:none;stroke-width:0.0352777"
       id="path104" />
    <path
       d="m 89.195203,193.92799 c 0,1.16735 -0.9465,2.1142 -2.11385,2.1142 -1.16804,0 -2.11419,-0.94685 -2.11419,-2.1142 0,-1.16769 0.94615,-2.11419 2.11419,-2.11419 1.16735,0 2.11385,0.9465 2.11385,2.11419"
       style="display:inline;fill:#cccccc;fill-opacity:1;fill-rule:nonzero;stroke:none;stroke-width:0.0352777"
       id="path106" />
    <path
       d="m 82.148113,185.25989 c 0,1.16734 -0.9465,2.11385 -2.11455,2.11385 -1.16734,0 -2.11384,-0.94651 -2.11384,-2.11385 0,-1.16769 0.9465,-2.11455 2.11384,-2.11455 1.16805,0 2.11455,0.94686 2.11455,2.11455"
       style="display:inline;fill:#cccccc;fill-opacity:1;fill-rule:nonzero;stroke:none;stroke-width:0.0352777"
       id="path108" />
    <path
       d="m 96.383753,185.25989 c 0,1.16734 -0.94685,2.11385 -2.11419,2.11385 -1.16805,0 -2.1142,-0.94651 -2.1142,-2.11385 0,-1.16769 0.94615,-2.11455 2.1142,-2.11455 1.16734,0 2.11419,0.94686 2.11419,2.11455"
       style="display:inline;fill:#cccccc;fill-opacity:1;fill-rule:nonzero;stroke:none;stroke-width:0.0352777"
       id="path110" />
    <path
       d="m 102.44447,176.94386 c 0,1.16769 -0.94685,2.1142 -2.11419,2.1142 -1.167697,0 -2.114547,-0.94651 -2.114547,-2.1142 0,-1.16769 0.94685,-2.1142 2.114547,-2.1142 1.16734,0 2.11419,0.94651 2.11419,2.1142"
       style="display:inline;fill:#cccccc;fill-opacity:1;fill-rule:nonzero;stroke:none;stroke-width:0.0352777"
       id="path112" />
  </g>
</svg>
