<?xml version="1.0" encoding="UTF-8" standalone="no"?>
<svg
   xmlns:dc="http://purl.org/dc/elements/1.1/"
   xmlns:cc="http://creativecommons.org/ns#"
   xmlns:rdf="http://www.w3.org/1999/02/22-rdf-syntax-ns#"
   xmlns:svg="http://www.w3.org/2000/svg"
   xmlns="http://www.w3.org/2000/svg"
   xmlns:sodipodi="http://sodipodi.sourceforge.net/DTD/sodipodi-0.dtd"
   xmlns:inkscape="http://www.inkscape.org/namespaces/inkscape"
   width="76.04808mm"
   height="45.486382mm"
   viewBox="0 0 76.048078 45.486381"
   version="1.1"
   id="svg208"
   inkscape:version="1.0.1 (3bc2e813f5, 2020-09-07)"
   sodipodi:docname="wind.svg">
  <defs
     id="defs202" />
  <sodipodi:namedview
     id="base"
     pagecolor="#ffffff"
     bordercolor="#666666"
     borderopacity="1.0"
     inkscape:pageopacity="0.0"
     inkscape:pageshadow="2"
     inkscape:zoom="2.8"
     inkscape:cx="161.44982"
     inkscape:cy="105.23485"
     inkscape:document-units="mm"
     inkscape:current-layer="layer1"
     inkscape:document-rotation="0"
     showgrid="false"
     fit-margin-top="5"
     lock-margins="true"
     fit-margin-left="5"
     fit-margin-right="5"
     fit-margin-bottom="5"
     inkscape:window-width="1147"
     inkscape:window-height="1008"
     inkscape:window-x="757"
     inkscape:window-y="0"
     inkscape:window-maximized="0" />
  <metadata
     id="metadata205">
    <rdf:RDF>
      <cc:Work
         rdf:about="">
        <dc:format>image/svg+xml</dc:format>
        <dc:type
           rdf:resource="http://purl.org/dc/dcmitype/StillImage" />
        <dc:title></dc:title>
      </cc:Work>
    </rdf:RDF>
  </metadata>
  <g
     inkscape:label="Ebene 1"
     inkscape:groupmode="layer"
     id="layer1"
     transform="translate(-308.54008,-355.14586)">
    <path
       d="m 366.00622,381.93388 c -0.0296,0 -0.0568,0.008 -0.0864,0.008 0.54433,-1.25836 0.84878,-2.64442 0.84878,-4.10245 0,-5.71747 -4.63479,-10.35226 -10.35226,-10.35226 -2.02071,0 -3.89996,0.58808 -5.49381,1.58855 -2.15512,-5.23839 -7.30462,-8.92986 -13.32054,-8.92986 -7.95514,0 -14.40391,6.44878 -14.40391,14.40427 0,0.60113 0.048,1.19027 0.11959,1.772 -0.0402,-3.4e-4 -0.0794,-0.006 -0.11959,-0.006 -5.33436,0 -9.658,4.324 -9.658,9.658 0,5.33365 4.32364,9.65765 9.658,9.65765 h 42.80817 c 3.78283,0 6.84918,-3.0667 6.84918,-6.84918 0,-3.78284 -3.06635,-6.84918 -6.84918,-6.84918"
       style="display:inline;fill:#e6e6e6;fill-opacity:1;fill-rule:nonzero;stroke:none;stroke-width:0.0352777"
       id="path116" />
    <path
       d="m 360.68139,362.52157 h -21.89198 c -0.65581,0 -1.18745,-0.53163 -1.18745,-1.1878 v 0 c 0,-0.65546 0.53164,-1.18745 1.18745,-1.18745 h 21.89198 c 0.65617,0 1.1878,0.53199 1.1878,1.18745 v 0 c 0,0.65617 -0.53163,1.1878 -1.1878,1.1878"
       style="display:inline;fill:#e6e6e6;fill-opacity:1;fill-rule:nonzero;stroke:none;stroke-width:0.0352777"
       id="path118" />
    <path
       d="m 378.40071,362.52157 h -12.70247 c -0.65581,0 -1.1878,-0.53163 -1.1878,-1.1878 v 0 c 0,-0.65546 0.53199,-1.18745 1.1878,-1.18745 h 12.70247 c 0.65582,0 1.18745,0.53199 1.18745,1.18745 v 0 c 0,0.65617 -0.53163,1.1878 -1.18745,1.1878"
       style="display:inline;fill:#e6e6e6;fill-opacity:1;fill-rule:nonzero;stroke:none;stroke-width:0.0352777"
       id="path120" />
    <path
       d="M 369.67123,369.86464 H 356.5747 c -0.65616,0 -1.1878,-0.53163 -1.1878,-1.18745 v 0 c 0,-0.65616 0.53164,-1.1878 1.1878,-1.1878 h 13.09653 c 0.65581,0 1.18745,0.53164 1.18745,1.1878 v 0 c 0,0.65582 -0.53164,1.18745 -1.18745,1.18745"
       style="display:inline;fill:#e6e6e6;fill-opacity:1;fill-rule:nonzero;stroke:none;stroke-width:0.0352777"
       id="path122" />
    <path
       d="m 378.33474,369.86464 h -3.4738 c -0.65617,0 -1.1878,-0.53163 -1.1878,-1.18745 v 0 c 0,-0.65616 0.53163,-1.1878 1.1878,-1.1878 h 3.4738 c 0.65582,0 1.18781,0.53164 1.18781,1.1878 v 0 c 0,0.65582 -0.53199,1.18745 -1.18781,1.18745"
       style="display:inline;fill:#e6e6e6;fill-opacity:1;fill-rule:nonzero;stroke:none;stroke-width:0.0352777"
       id="path124" />
    <path
       d="M 378.33474,384.22764 H 356.5747 c -0.65616,0 -1.1878,-0.53199 -1.1878,-1.18816 v 0 c 0,-0.65581 0.53164,-1.18745 1.1878,-1.18745 h 21.76004 c 0.65582,0 1.18781,0.53164 1.18781,1.18745 v 0 c 0,0.65617 -0.53199,1.18816 -1.18781,1.18816"
       style="display:inline;fill:#e6e6e6;fill-opacity:1;fill-rule:nonzero;stroke:none;stroke-width:0.0352777"
       id="path126" />
    <path
       d="M 378.33474,395.63224 H 356.5747 c -0.65616,0 -1.1878,-0.53164 -1.1878,-1.18745 v 0 c 0,-0.65617 0.53164,-1.18816 1.1878,-1.18816 h 21.76004 c 0.65582,0 1.18781,0.53199 1.18781,1.18816 v 0 c 0,0.65581 -0.53199,1.18745 -1.18781,1.18745"
       style="display:inline;fill:#e6e6e6;fill-opacity:1;fill-rule:nonzero;stroke:none;stroke-width:0.0352777"
       id="path128" />
  </g>
</svg>
