<?xml version="1.0" standalone="no"?>
<!DOCTYPE svg PUBLIC "-//W3C//DTD SVG 20010904//EN"
 "http://www.w3.org/TR/2001/REC-SVG-20010904/DTD/svg10.dtd">
<svg version="1.0" xmlns="http://www.w3.org/2000/svg"
 width="792.000000pt" height="792.000000pt" viewBox="0 0 792.000000 792.000000"
 preserveAspectRatio="xMidYMid meet">
<metadata>
Created by potrace 1.11, written by Peter Selinger 2001-2013
</metadata>
<g transform="translate(0.000000,792.000000) scale(0.100000,-0.100000)"
fill="#000000" stroke="none">
<path d="M3749 7916 c-2 -2 -49 -7 -104 -10 -54 -4 -101 -9 -105 -10 -3 -2
-28 -6 -55 -10 -210 -24 -527 -117 -698 -203 l-49 -24 -1266 -2 -1267 -2 -50
-23 c-67 -31 -93 -56 -126 -127 l-29 -60 0 -2430 0 -2430 24 -50 c28 -61 74
-108 135 -137 45 -22 56 -22 405 -23 l360 -1 1 -269 1 -270 -38 -42 c-25 -28
-36 -48 -31 -59 3 -9 0 -20 -8 -25 -19 -12 -25 -11 -42 5 -30 30 -83 56 -116
56 -47 0 -113 -34 -162 -82 -52 -52 -68 -90 -63 -149 6 -58 -13 -79 -51 -59
-32 17 -69 6 -127 -37 -91 -66 -122 -157 -84 -247 24 -58 21 -69 -14 -61 -19
4 -42 0 -66 -11 -52 -25 -78 -86 -77 -182 1 -63 6 -83 42 -155 22 -45 58 -109
80 -142 l39 -59 -19 -37 c-46 -92 -71 -192 -76 -311 -6 -112 -5 -118 20 -161
16 -27 40 -51 61 -61 31 -15 343 -16 3776 -16 l3741 1 -6 52 c-4 29 -15 77
-26 107 -10 30 -19 57 -19 61 0 3 12 24 26 45 40 58 103 181 129 250 27 71 28
180 2 230 -21 41 -64 68 -109 69 -21 0 -40 3 -42 6 -3 3 3 27 13 55 35 92 13
167 -72 239 -54 47 -108 63 -143 44 -23 -12 -27 -11 -40 5 -9 12 -11 33 -7 61
4 29 0 53 -12 79 -20 42 -104 116 -153 136 -46 18 -105 7 -153 -29 -33 -24
-46 -28 -61 -20 -10 5 -16 14 -13 19 3 5 -2 24 -12 42 -15 30 -17 74 -18 471
0 288 3 441 10 445 5 4 161 7 345 7 184 1 351 5 370 9 80 19 167 102 187 178
9 34 11 633 10 2474 l-2 2429 -29 53 c-30 53 -62 83 -126 118 -34 18 -79 19
-1307 21 -1255 2 -1272 2 -1312 22 -209 107 -529 192 -848 225 -111 11 -534
20 -544 12z"/>
</g>
</svg>
